# xmcd
#
# Track frame offsets:
#	150
#	18795
#	34621
#	51942
#	73545
#	87008
#	117500
#	131643
#	144011
#	156812
#
# Disc length: 2340 seconds
#
# Revision: 0
# Processed by: cddbd v1.5.1PL2 Copyright (c) Steve Scherf et al.
# Submitted via: EasyCDDAExtractor 9.1.3.1
#
DISCID=7909220a
DTITLE=Alabama - Mountain Music
DYEAR=1982
DGENRE=Country
TTITLE0=Mountain Music
TTITLE1=Close Enough To Perfect
TTITLE2=Words At Twenty Paces
TTITLE3=Take Me Down
TTITLE4=Lovin' You Is Killin' Me
TTITLE5=Changes Comin' On
TTITLE6=You Turn Me On
TTITLE7=Never Be One
TTITLE8=Green River
TTITLE9=Gonna Have A Party
EXTD=
EXTT0=
EXTT1=
EXTT2=
EXTT3=
EXTT4=
EXTT5=
EXTT6=
EXTT7=
EXTT8=
EXTT9=
PLAYORDER=
